<svg width="50" height="50" viewBox="0 0 50 50" fill="none" xmlns="http://www.w3.org/2000/svg">
<rect width="50" height="50" rx="25" fill="#D97B02"/>
<g clip-path="url(#clip0_1_370)">
<path d="M33.069 15.3438C33.069 15.3438 32.5805 14.9453 31.6034 14.1484C30.6264 13.3516 28.7586 12.9531 26 12.9531C23.2414 12.9531 20.8851 13.75 18.931 15.3438C16.977 16.9375 16 18.8594 16 21.1094C16 22.8594 17.3793 25.7344 20.1379 29.7344C21.4023 31.6094 22.6858 33.3594 23.9885 34.9844L25.3678 36.6719C25.5211 36.8594 25.7318 36.9531 26 36.9531C26.2682 36.9531 26.4789 36.8594 26.6322 36.6719L28.0115 34.9844C29.3142 33.3906 30.5977 31.6406 31.8621 29.7344C34.6207 25.7344 36 22.8594 36 21.1094C36 18.8594 35.023 16.9375 33.069 15.3438ZM30.5977 29.125C29.295 31 28.0115 32.7344 26.7471 34.3281L26 35.2188L25.2529 34.3281C23.9502 32.7344 22.6667 31 21.4023 29.125C18.7969 25.3125 17.4943 22.6406 17.4943 21.1094C17.4943 19.2031 18.3276 17.5703 19.9943 16.2109C21.6609 14.8516 23.6628 14.1719 26 14.1719C28.3372 14.1719 30.3391 14.8516 32.0057 16.2109C33.6724 17.5703 34.5057 19.2031 34.5057 21.1094C34.5057 22.6406 33.2031 25.3125 30.5977 29.125ZM29.908 17.8516C29.908 17.8516 29.6398 17.6289 29.1034 17.1836C28.567 16.7383 27.5326 16.5156 26 16.5156C24.4674 16.5156 23.1648 16.9609 22.092 17.8516C21.0192 18.7422 20.4828 19.8125 20.4828 21.0625C20.4828 22.3125 21.0192 23.375 22.092 24.25C23.1648 25.125 24.4674 25.5625 26 25.5625C27.5326 25.5625 28.8352 25.125 29.908 24.25C30.9808 23.375 31.5172 22.3125 31.5172 21.0625C31.5172 19.8125 30.9808 18.7422 29.908 17.8516ZM28.8448 23.3828C28.8448 23.3828 28.6485 23.543 28.2557 23.8633C27.863 24.1836 27.1111 24.3438 26 24.3438C24.8889 24.3438 23.9406 24.0234 23.1552 23.3828C22.3697 22.7422 21.977 21.9688 21.977 21.0625C21.977 20.1562 22.3697 19.375 23.1552 18.7188C23.9406 18.0625 24.8889 17.7344 26 17.7344C27.1111 17.7344 28.0594 18.0625 28.8448 18.7188C29.6303 19.375 30.023 20.1562 30.023 21.0625C30.023 21.9688 29.6303 22.7422 28.8448 23.3828Z" fill="white"/>
</g>
<defs>
<clipPath id="clip0_1_370">
<rect width="28" height="24" fill="white" transform="matrix(1 0 0 -1 13 37)"/>
</clipPath>
</defs>
</svg>
