<svg width="51" height="51" viewBox="0 0 51 51" fill="none" xmlns="http://www.w3.org/2000/svg">
<rect x="0.505005" y="0.410156" width="50" height="50" rx="25" fill="#D97B02"/>
<g clip-path="url(#clip0_1_383)">
<path d="M35.7307 21.7215V18.8266H32.042L25.505 13.6437L18.968 18.8266H15.2793V21.7215L13.5517 23.1223V37.1768H37.4583V23.1223L35.7307 21.7215ZM21.863 30.0328L14.2988 36.0561V24.0561L21.863 30.0328ZM25.505 28.0717L36.0575 36.4297H14.9525L25.505 28.0717ZM29.147 30.0328L36.7112 24.0561V36.0561L29.147 30.0328ZM36.5245 23.3091L35.7307 23.9161V22.6554L36.5245 23.3091ZM25.505 14.5775L30.828 18.8266H20.182L25.505 14.5775ZM34.9836 19.527V24.5231L28.5867 29.5659L25.505 27.1378L22.4233 29.5659L16.0264 24.5231V19.527H34.9836ZM15.2793 23.9161L14.4855 23.3091L15.2793 22.6554V23.9161ZM18.4077 22.2818H32.6023V22.9822H18.4077V22.2818ZM18.4077 24.3363H32.6023V25.0834H18.4077V24.3363Z" fill="white"/>
</g>
<defs>
<clipPath id="clip0_1_383">
<rect width="24" height="24" fill="white" transform="matrix(1 0 0 -1 13.505 37.4102)"/>
</clipPath>
</defs>
</svg>
