<svg width="37" height="37" viewBox="0 0 37 37" fill="none" xmlns="http://www.w3.org/2000/svg">
<rect x="0.799988" y="0.410156" width="36" height="36" rx="3" fill="#3B3B3B"/>
<g clip-path="url(#clip0_1_408)">
<path d="M21.9428 9.51709V11.8742H20.5411C20.0292 11.8742 19.6839 11.9814 19.5053 12.1957C19.3268 12.4099 19.2375 12.7314 19.2375 13.1599V14.8474H21.8536L21.5053 17.4903H19.2375V24.2671H16.5053V17.4903H14.2286V14.8474H16.5053V12.901C16.5053 11.7939 16.8149 10.9352 17.4339 10.3251C18.053 9.71501 18.8774 9.40995 19.9071 9.40995C20.7821 9.40995 21.4607 9.44566 21.9428 9.51709Z" fill="white"/>
</g>
<defs>
<clipPath id="clip0_1_408">
<rect width="9.16" height="16" fill="white" transform="matrix(1 0 0 -1 14.22 25.4102)"/>
</clipPath>
</defs>
</svg>
