<svg width="37" height="37" viewBox="0 0 37 37" fill="none" xmlns="http://www.w3.org/2000/svg">
<rect x="0.200012" y="0.410156" width="36" height="36" rx="3" fill="#3B3B3B"/>
<g clip-path="url(#clip0_1_411)">
<path d="M23.5036 22.1421V16.3564H22.2982C22.4173 16.7314 22.4768 17.1213 22.4768 17.526C22.4768 18.276 22.2863 18.968 21.9054 19.6019C21.5244 20.2358 21.0066 20.7373 20.3518 21.1064C19.697 21.4754 18.9827 21.6599 18.2089 21.6599C17.0363 21.6599 16.0333 21.2567 15.2 20.4501C14.3667 19.6436 13.95 18.6689 13.95 17.526C13.95 17.1213 14.0095 16.7314 14.1286 16.3564H12.8697V22.1421C12.8697 22.2969 12.9217 22.4263 13.0259 22.5305C13.1301 22.6346 13.2595 22.6867 13.4143 22.6867H22.9589C23.1077 22.6867 23.2357 22.6346 23.3429 22.5305C23.45 22.4263 23.5036 22.2969 23.5036 22.1421ZM20.1598 19.2716C20.1598 19.2716 20.2945 19.1413 20.5638 18.8809C20.8332 18.6205 20.9679 18.1213 20.9679 17.3832C20.9679 16.6451 20.6985 16.0156 20.1598 15.4948C19.6211 14.9739 18.9708 14.7135 18.2089 14.7135C17.453 14.7135 16.8057 14.9739 16.267 15.4948C15.7283 16.0156 15.4589 16.6451 15.4589 17.3832C15.4589 18.1213 15.7283 18.7507 16.267 19.2716C16.8057 19.7924 17.453 20.0528 18.2089 20.0528C18.9708 20.0528 19.6211 19.7924 20.1598 19.2716ZM23.5036 14.1689V12.6957C23.5036 12.529 23.4441 12.3846 23.325 12.2626C23.206 12.1406 23.0601 12.0796 22.8875 12.0796H21.3339C21.1613 12.0796 21.0155 12.1406 20.8964 12.2626C20.7774 12.3846 20.7179 12.529 20.7179 12.6957V14.1689C20.7179 14.3415 20.7774 14.4873 20.8964 14.6064C21.0155 14.7254 21.1613 14.7849 21.3339 14.7849H22.8875C23.0601 14.7849 23.206 14.7254 23.325 14.6064C23.4441 14.4873 23.5036 14.3415 23.5036 14.1689ZM25.0572 12.3117V22.5082C25.0572 22.9903 24.8845 23.404 24.5393 23.7492C24.1941 24.0945 23.7804 24.2671 23.2982 24.2671H13.1018C12.6197 24.2671 12.206 24.0945 11.8607 23.7492C11.5155 23.404 11.3429 22.9903 11.3429 22.5082V12.3117C11.3429 11.8296 11.5155 11.4159 11.8607 11.0707C12.206 10.7254 12.6197 10.5528 13.1018 10.5528H23.2982C23.7804 10.5528 24.1941 10.7254 24.5393 11.0707C24.8845 11.4159 25.0572 11.8296 25.0572 12.3117Z" fill="white"/>
</g>
<defs>
<clipPath id="clip0_1_411">
<rect width="13.72" height="16" fill="white" transform="matrix(1 0 0 -1 11.34 25.4102)"/>
</clipPath>
</defs>
</svg>
