<svg width="14" height="15" viewBox="0 0 14 15" fill="none" xmlns="http://www.w3.org/2000/svg">
<g clip-path="url(#clip0_1_432)">
<path d="M12.0621 11.9364V6.51228H10.9321C11.0437 6.86384 11.0995 7.22935 11.0995 7.60882C11.0995 8.31194 10.9209 8.96066 10.5638 9.55497C10.2066 10.1493 9.72115 10.6194 9.10731 10.9654C8.49347 11.3114 7.82383 11.4844 7.09838 11.4844C5.99905 11.4844 5.05876 11.1063 4.27751 10.3502C3.49626 9.59403 3.10563 8.68025 3.10563 7.60882C3.10563 7.22935 3.16144 6.86384 3.27305 6.51228H2.0928V11.9364C2.0928 12.0815 2.14163 12.2028 2.23928 12.3005C2.33694 12.3982 2.45831 12.447 2.6034 12.447H11.5515C11.691 12.447 11.811 12.3982 11.9114 12.3005C12.0119 12.2028 12.0621 12.0815 12.0621 11.9364ZM8.92734 9.24526C8.92734 9.24526 9.0536 9.12319 9.30611 8.87905C9.55862 8.63491 9.68488 8.16685 9.68488 7.47489C9.68488 6.78293 9.43236 6.1928 8.92734 5.70452C8.42232 5.21624 7.81267 4.9721 7.09838 4.9721C6.38967 4.9721 5.78281 5.21624 5.27779 5.70452C4.77277 6.1928 4.52025 6.78293 4.52025 7.47489C4.52025 8.16685 4.77277 8.75698 5.27779 9.24526C5.78281 9.73354 6.38967 9.97768 7.09838 9.97768C7.81267 9.97768 8.42232 9.73354 8.92734 9.24526ZM12.0621 4.4615V3.08036C12.0621 2.92411 12.0063 2.78879 11.8947 2.67439C11.7831 2.55999 11.6464 2.50279 11.4845 2.50279H10.0281C9.86624 2.50279 9.72952 2.55999 9.61791 2.67439C9.5063 2.78879 9.4505 2.92411 9.4505 3.08036V4.4615C9.4505 4.62333 9.5063 4.76005 9.61791 4.87165C9.72952 4.98326 9.86624 5.03907 10.0281 5.03907H11.4845C11.6464 5.03907 11.7831 4.98326 11.8947 4.87165C12.0063 4.76005 12.0621 4.62333 12.0621 4.4615ZM13.5186 2.72043V12.2796C13.5186 12.7316 13.3568 13.1194 13.0331 13.4431C12.7094 13.7667 12.3216 13.9286 11.8696 13.9286H2.31043C1.85842 13.9286 1.47059 13.7667 1.14693 13.4431C0.823268 13.1194 0.661438 12.7316 0.661438 12.2796V2.72043C0.661438 2.26842 0.823268 1.88058 1.14693 1.55692C1.47059 1.23326 1.85842 1.07143 2.31043 1.07143H11.8696C12.3216 1.07143 12.7094 1.23326 13.0331 1.55692C13.3568 1.88058 13.5186 2.26842 13.5186 2.72043Z" fill="black"/>
</g>
<defs>
<clipPath id="clip0_1_432">
<rect width="12.86" height="15" fill="white" transform="matrix(1 0 0 -1 0.660034 15)"/>
</clipPath>
</defs>
</svg>
