<svg width="15" height="14" viewBox="0 0 15 14" fill="none" xmlns="http://www.w3.org/2000/svg">
<g clip-path="url(#clip0_1_421)">
<path d="M0.904355 2.53307C0.686456 2.53307 0.55027 2.55122 0.495795 2.58754C0.44132 2.62386 0.432241 2.66471 0.468557 2.71011C0.504874 2.75551 0.595665 2.83268 0.740931 2.94163C0.813564 2.9961 0.868039 3.0415 0.904355 3.07781L7.06 7.76264L13.2156 3.10505L13.3518 2.96886C13.4971 2.85991 13.5924 2.78274 13.6378 2.73735C13.6832 2.69195 13.6787 2.64656 13.6242 2.60116C13.5697 2.55577 13.4335 2.53307 13.2156 2.53307H6.65144H0.904355ZM0.0872345 3.62256V10.5408C0.0872345 10.7406 0.168947 10.9449 0.332371 11.1537C0.495795 11.3625 0.659219 11.4669 0.822643 11.4669H13.2974C13.4608 11.4669 13.6242 11.3625 13.7876 11.1537C13.951 10.9449 14.0328 10.7406 14.0328 10.5408V3.62256L7.06 8.96108L0.0872345 3.62256Z" fill="black"/>
</g>
<defs>
<clipPath id="clip0_1_421">
<rect width="14" height="14" fill="white" transform="matrix(1 0 0 -1 0.0599976 14)"/>
</clipPath>
</defs>
</svg>
