<svg width="51" height="51" viewBox="0 0 51 51" fill="none" xmlns="http://www.w3.org/2000/svg">
<rect x="0.505005" y="0.410156" width="50" height="50" rx="25" fill="#D97B02"/>
<g clip-path="url(#clip0_1_376)">
<path d="M36.7622 31.3869L33.307 27.9317C32.84 27.4336 32.2642 27.1846 31.5793 27.1846C30.8634 27.1846 30.2408 27.4492 29.7116 27.9784L28.4042 29.3325C26.8167 28.4297 25.5171 27.4803 24.5054 26.4842C23.4937 25.4881 22.5521 24.1963 21.6805 22.6087L23.0346 21.2546C23.5326 20.7566 23.7895 20.1574 23.805 19.457C23.8206 18.7566 23.5793 18.1729 23.0813 17.706L19.626 14.2507C19.1591 13.7527 18.5832 13.5037 17.8984 13.5037C17.1824 13.5037 16.5754 13.7527 16.0774 14.2507C14.8945 15.1846 14.1085 16.6009 13.7194 18.4998C13.3303 20.3986 13.6182 22.3286 14.5832 24.2897C15.5482 26.2507 17.3225 28.5231 19.9062 31.1068C21.2447 32.4453 22.591 33.5659 23.9451 34.4686C25.2992 35.3714 26.521 36.0095 27.6105 36.383C28.7 36.7566 29.5716 37.0056 30.2253 37.1301C30.8789 37.2546 31.4548 37.3169 31.9529 37.3169C32.1396 37.3169 32.2953 37.3013 32.4198 37.2702C33.2603 37.1768 33.9918 36.9823 34.6144 36.6865C35.2369 36.3908 35.6727 36.1262 35.9217 35.8928C36.1708 35.6593 36.4509 35.3247 36.7622 34.8889C37.2291 34.3286 37.4626 33.7216 37.4626 33.0679C37.4626 32.4142 37.2291 31.8539 36.7622 31.3869ZM35.6416 34.0017C35.3303 34.3441 35.0813 34.6087 34.8945 34.7955C34.7077 34.9823 34.3809 35.1768 33.914 35.3792C33.447 35.5815 32.9023 35.7293 32.2797 35.8227C32.1863 35.8227 32.0774 35.8227 31.9529 35.8227C31.486 35.8227 30.9646 35.7683 30.3887 35.6593C29.8128 35.5504 29.0346 35.3247 28.054 34.9823C27.0735 34.6399 25.9529 34.0484 24.6922 33.2079C23.4315 32.3675 22.1786 31.3247 20.9334 30.0795C18.5677 27.6827 16.9334 25.6126 16.0307 23.8694C15.128 22.1262 14.8478 20.4453 15.1902 18.8266C15.3147 18.1107 15.5404 17.4648 15.8673 16.8889C16.1941 16.313 16.4354 15.9395 16.591 15.7683C16.7467 15.597 16.8867 15.4803 17.0112 15.4181L17.0579 15.3714L17.1046 15.3247C17.3225 15.1068 17.5871 14.9978 17.8984 14.9978C18.1474 14.9978 18.3809 15.0912 18.5988 15.278L22.054 18.7332C22.2408 18.92 22.3264 19.1613 22.3109 19.457C22.2953 19.7527 22.1941 20.0095 22.0074 20.2274L20.4665 21.7216L20.4198 21.7683C20.0463 22.2041 20.0151 22.671 20.3264 23.169C21.3225 24.9745 22.3731 26.4297 23.4782 27.5348C24.5832 28.6399 26.0229 29.6904 27.7972 30.6865C28.0151 30.8111 28.233 30.8733 28.4509 30.8733C28.8245 30.8733 29.1202 30.7332 29.3381 30.4531L30.7856 29.0056C31.0035 28.7877 31.2681 28.6788 31.5793 28.6788C31.8595 28.6788 32.093 28.7721 32.2797 28.9589L35.735 32.4142C36.1396 32.85 36.1085 33.3792 35.6416 34.0017ZM28.0307 17.1457C29.4315 17.3013 30.7077 17.955 31.8595 19.1068C33.0112 20.2585 33.6649 21.5504 33.8206 22.9823C33.8517 23.169 33.9373 23.3247 34.0774 23.4492C34.2175 23.5737 34.3809 23.636 34.5677 23.636C34.5988 23.636 34.6299 23.636 34.661 23.636C34.8478 23.6048 35.0112 23.5114 35.1513 23.3558C35.2914 23.2002 35.3459 23.0134 35.3147 22.7955C35.128 21.0523 34.3342 19.4803 32.9334 18.0795C31.5326 16.6788 29.9607 15.8694 28.2175 15.6515C27.9996 15.6515 27.8128 15.7138 27.6572 15.8383C27.5015 15.9628 27.4081 16.1262 27.377 16.3286C27.3459 16.5309 27.4003 16.7099 27.5404 16.8655C27.6805 17.0212 27.8439 17.1146 28.0307 17.1457ZM27.3303 20.2741C28.1396 20.3363 28.9023 20.741 29.6182 21.4881C30.3342 22.2041 30.7389 22.9667 30.8323 23.776C30.8634 23.9628 30.949 24.1185 31.0891 24.243C31.2291 24.3675 31.3926 24.4297 31.5793 24.4297C31.6105 24.4297 31.6416 24.4297 31.6727 24.4297C31.8595 24.3986 32.0151 24.3052 32.1396 24.1496C32.2642 23.9939 32.3264 23.8072 32.3264 23.5893C32.2019 22.4375 31.6416 21.3792 30.6455 20.4142C29.6805 19.4492 28.6377 18.9044 27.5171 18.7799C27.2992 18.7488 27.1124 18.7955 26.9568 18.92C26.8011 19.0445 26.7155 19.2079 26.7 19.4103C26.6844 19.6126 26.7389 19.7994 26.8634 19.9706C26.9879 20.1418 27.1435 20.243 27.3303 20.2741Z" fill="white"/>
</g>
<defs>
<clipPath id="clip0_1_376">
<rect width="24" height="24" fill="white" transform="matrix(1 0 0 -1 13.505 37.4102)"/>
</clipPath>
</defs>
</svg>
