<svg width="15" height="14" viewBox="0 0 15 14" fill="none" xmlns="http://www.w3.org/2000/svg">
<g clip-path="url(#clip0_1_426)">
<path d="M3.87897 5.393C3.42502 5.86511 4.05601 6.95007 5.77197 8.64786C7.48792 10.3457 8.57288 10.9676 9.02683 10.5136C9.06315 10.4773 9.10854 10.4228 9.16302 10.3502C9.39908 10.1141 9.5852 9.94617 9.72139 9.8463C9.85757 9.74643 10.0437 9.66472 10.2798 9.60117C10.5158 9.53761 10.7836 9.57393 11.0833 9.71012C11.3829 9.8463 11.7415 10.0778 12.1591 10.4047C12.377 10.5863 12.5541 10.7633 12.6903 10.9358C12.8264 11.1083 12.9263 11.2626 12.9899 11.3988C13.0534 11.535 13.0716 11.6848 13.0443 11.8482C13.0171 12.0117 12.9899 12.1433 12.9626 12.2432C12.9354 12.3431 12.8582 12.4747 12.7311 12.6381C12.604 12.8016 12.5087 12.915 12.4451 12.9786C12.3816 13.0422 12.2681 13.1511 12.1047 13.3054C11.9412 13.4598 11.8414 13.5642 11.805 13.6187C11.2966 14.1271 10.2798 14.0953 8.75446 13.5233C7.22917 12.9514 5.67664 11.8846 4.09687 10.323C2.5171 8.76135 1.44123 7.22244 0.869244 5.70623C0.29726 4.19001 0.256404 3.17769 0.746676 2.66926C0.801151 2.61479 0.905561 2.50584 1.05991 2.34241C1.21425 2.17899 1.3232 2.0655 1.38675 2.00195C1.45031 1.93839 1.5638 1.84306 1.72722 1.71595C1.89065 1.58885 2.02229 1.51167 2.12216 1.48444C2.22203 1.4572 2.35368 1.42996 2.5171 1.40272C2.68053 1.37549 2.83033 1.39364 2.96652 1.4572C3.10271 1.52075 3.25705 1.61608 3.42956 1.74319C3.60206 1.8703 3.7791 2.0428 3.96068 2.2607C4.28753 2.67834 4.51905 3.03697 4.65524 3.33658C4.79142 3.63619 4.82774 3.90402 4.76419 4.14008C4.70063 4.37613 4.62346 4.56226 4.53267 4.69844C4.44188 4.83463 4.26937 5.02075 4.01516 5.25681C3.96068 5.31128 3.91529 5.35668 3.87897 5.393ZM7.58325 2.72374C7.32904 2.68742 7.11114 2.76005 6.92956 2.94163C6.80245 3.06874 6.73889 3.23217 6.73889 3.43191C6.73889 3.63165 6.81153 3.80415 6.95679 3.94942C6.99311 4.00389 7.04758 4.04929 7.12022 4.0856C7.19285 4.12192 7.24732 4.14008 7.28364 4.14008L7.33812 4.16732C8.11892 4.31258 8.76354 4.63943 9.27197 5.14786C9.7804 5.65629 10.1072 6.29183 10.2525 7.05448C10.2707 7.2179 10.3342 7.35409 10.4432 7.46304C10.5884 7.6083 10.7609 7.68093 10.9607 7.68093C11.1604 7.68093 11.3329 7.6083 11.4782 7.46304C11.5508 7.3904 11.6053 7.29961 11.6416 7.19066C11.6779 7.08171 11.6961 6.99092 11.6961 6.91829V6.83658C11.5327 5.7834 11.0696 4.87549 10.307 4.11284C9.54434 3.35019 8.63643 2.88716 7.58325 2.72374ZM9.01321 1.83852C9.01321 1.83852 9.19707 1.91342 9.56477 2.06323C9.93247 2.21304 10.4523 2.62387 11.1241 3.29572C11.796 3.96758 12.2817 4.67121 12.5813 5.40662C12.8809 6.14202 12.9853 6.8275 12.8945 7.46304C12.8401 7.73541 12.9036 7.95331 13.0852 8.11673C13.2305 8.262 13.403 8.33463 13.6027 8.33463C13.8024 8.33463 13.975 8.262 14.1202 8.11673C14.1565 8.08042 14.1929 8.0214 14.2292 7.93969C14.2655 7.85798 14.2927 7.78988 14.3109 7.73541V7.6537C14.4198 6.94553 14.3245 6.10571 14.0249 5.13424C13.7253 4.16278 13.0988 3.20493 12.1455 2.2607C11.1922 1.31647 10.2344 0.690013 9.27197 0.381323C8.30958 0.0726328 7.46522 -0.0272369 6.73889 0.0817118C6.55731 0.0998707 6.40297 0.172503 6.27586 0.299611C6.13059 0.444877 6.05796 0.61738 6.05796 0.817121C6.05796 1.01686 6.13059 1.18936 6.27586 1.33463C6.34849 1.40726 6.44382 1.46174 6.56185 1.49805C6.67988 1.53437 6.77521 1.54345 6.84784 1.52529H6.92956C7.58325 1.4345 8.2778 1.53891 9.01321 1.83852Z" fill="black"/>
</g>
<defs>
<clipPath id="clip0_1_426">
<rect width="14" height="14" fill="white" transform="matrix(1 0 0 -1 0.380005 14)"/>
</clipPath>
</defs>
</svg>
